<svg xmlns="http://www.w3.org/2000/svg" width="24" height="24" viewBox="0 0 24 24" fill="none">
  <path d="M19.5003 12.5719L12.0003 19.9999L4.5003 12.5719C4.00561 12.0905 3.61594 11.5119 3.35585 10.8726C3.09575 10.2332 2.97086 9.54688 2.98904 8.85687C3.00721 8.16685 3.16806 7.48807 3.46146 6.86327C3.75485 6.23847 4.17444 5.68119 4.69379 5.22651C5.21314 4.77184 5.82101 4.42962 6.47911 4.22141C7.13722 4.01321 7.83131 3.94352 8.51767 4.01673C9.20403 4.08995 9.8678 4.30449 10.4672 4.64684C11.0666 4.98919 11.5885 5.45193 12.0003 6.00593C12.4138 5.45595 12.9364 4.99725 13.5354 4.65854C14.1344 4.31982 14.7968 4.10838 15.4812 4.03745C16.1657 3.96652 16.8574 4.03763 17.5131 4.24632C18.1688 4.45502 18.7743 4.79681 19.2919 5.2503C19.8094 5.70379 20.2277 6.25922 20.5207 6.88182C20.8137 7.50443 20.975 8.18082 20.9946 8.86864C21.0142 9.55647 20.8916 10.2409 20.6344 10.8792C20.3773 11.5174 19.9912 12.0958 19.5003 12.5779" stroke="black" stroke-width="2" stroke-linecap="round" stroke-linejoin="round"/>
</svg>